<svg width="216" height="180" viewBox="0 0 216 180" fill="none" xmlns="http://www.w3.org/2000/svg">
<path d="M109.2 164.4C155.592 164.4 193.2 157.953 193.2 150C193.2 142.047 155.592 135.6 109.2 135.6C62.8082 135.6 25.2001 142.047 25.2001 150C25.2001 157.953 62.8082 164.4 109.2 164.4Z" fill="url(#paint0_radial_430_4097)"/>
<path d="M38.4 153C49.6666 153 58.8 150.582 58.8 147.6C58.8 144.618 49.6666 142.2 38.4 142.2C27.1334 142.2 18 144.618 18 147.6C18 150.582 27.1334 153 38.4 153Z" fill="#C2CBE2"/>
<path d="M51.5999 141.6H25.1999C23.2116 141.6 21.5999 143.212 21.5999 145.2V145.8C21.5999 147.788 23.2116 149.4 25.1999 149.4H51.5999C53.5881 149.4 55.1999 147.788 55.1999 145.8V145.2C55.1999 143.212 53.5881 141.6 51.5999 141.6Z" fill="url(#paint1_linear_430_4097)"/>
<path d="M38.4 100.8C39.6 100.8 40.2 101.4 40.5 102.6L49.8 140.4C50.1 142.2 48.6 143.4 46.8 143.4H30C28.2 143.4 26.7 142.2 27 140.4L36.3 102.6C36.6 101.4 37.2 100.8 38.4 100.8Z" fill="url(#paint2_linear_430_4097)"/>
<path d="M34.2 119.4H42.6C43.5 119.4 44.1 120.3 43.92 121.2L43.2 125.4C43.08 126 42.6 126.36 42 126.36H34.8C34.2 126.36 33.72 126 33.6 125.4L32.88 121.2C32.7 120.3 33.3 119.4 34.2 119.4Z" fill="#C2CBE2"/>
<path d="M36.2999 106.8H40.4999C41.2799 106.8 41.8199 107.52 41.6399 108.3L41.1599 111.3C41.0399 111.84 40.6199 112.2 40.0799 112.2H36.7199C36.1799 112.2 35.7599 111.84 35.6399 111.3L35.1599 108.3C34.9799 107.52 35.5199 106.8 36.2999 106.8Z" fill="#C2CBE2"/>
<path d="M68.9315 124.599C69.3105 122.817 68.1725 121.064 66.3898 120.685C64.607 120.306 62.8547 121.444 62.4758 123.227L54.6167 160.201C54.2378 161.984 55.3758 163.736 57.1585 164.115C58.9412 164.494 60.6935 163.356 61.0725 161.573L68.9315 124.599Z" fill="url(#paint3_linear_430_4097)"/>
<path d="M69.2497 122.717C68.6865 120.983 66.8248 120.035 65.0915 120.598C63.3582 121.161 62.4096 123.023 62.9728 124.756L74.6536 160.706C75.2168 162.439 77.0785 163.388 78.8118 162.825C80.5452 162.262 81.4938 160.4 80.9306 158.667L69.2497 122.717Z" fill="url(#paint4_linear_430_4097)"/>
<path d="M160.606 119.795C160.985 118.012 159.847 116.26 158.064 115.881C156.281 115.502 154.529 116.64 154.15 118.423L146.291 155.397C145.912 157.179 147.05 158.932 148.833 159.311C150.616 159.69 152.368 158.552 152.747 156.769L160.606 119.795Z" fill="url(#paint5_linear_430_4097)"/>
<path d="M160.924 117.912C160.361 116.179 158.5 115.23 156.766 115.793C155.033 116.357 154.084 118.218 154.647 119.952L166.328 155.902C166.891 157.635 168.753 158.584 170.487 158.02C172.22 157.457 173.168 155.595 172.605 153.862L160.924 117.912Z" fill="url(#paint6_linear_430_4097)"/>
<path d="M161.048 93.2597L55.5931 98.7863C50.9602 99.0291 47.4014 102.982 47.6442 107.614L48.5235 124.391C48.7663 129.024 52.7187 132.583 57.3516 132.34L162.807 126.814C167.44 126.571 170.999 122.618 170.756 117.985L169.876 101.209C169.634 96.5757 165.681 93.0169 161.048 93.2597Z" fill="url(#paint7_linear_430_4097)"/>
<path d="M161.048 93.2597L55.5931 98.7863C50.9602 99.0291 47.4014 102.982 47.6442 107.614L48.5235 124.391C48.7663 129.024 52.7187 132.583 57.3516 132.34L162.807 126.814C167.44 126.571 170.999 122.618 170.756 117.985L169.876 101.209C169.634 96.5757 165.681 93.0169 161.048 93.2597Z" stroke="#E7EBF6" stroke-width="0.9"/>
<path d="M153.162 103.286L143.952 110.979L153.916 117.666" stroke="white" stroke-width="6.6" stroke-linecap="round" stroke-linejoin="round"/>
<path d="M132.79 104.354L123.58 112.046L133.544 118.734" stroke="white" stroke-width="6.6" stroke-linecap="round" stroke-linejoin="round"/>
<path d="M112.418 105.421L103.208 113.114L113.172 119.802" stroke="white" stroke-width="6.6" stroke-linecap="round" stroke-linejoin="round"/>
<path d="M92.0462 106.489L82.8362 114.182L92.7998 120.869" stroke="white" stroke-width="6.6" stroke-linecap="round" stroke-linejoin="round"/>
<path d="M71.6742 107.557L62.4642 115.249L72.4279 121.937" stroke="white" stroke-width="6.6" stroke-linecap="round" stroke-linejoin="round"/>
<g opacity="0.7">
<path d="M153.162 103.286L143.952 110.979L153.916 117.666" stroke="#C2CBE2" stroke-width="1.2" stroke-linecap="round" stroke-linejoin="round"/>
<path d="M132.79 104.354L123.58 112.046L133.544 118.734" stroke="#C2CBE2" stroke-width="1.2" stroke-linecap="round" stroke-linejoin="round"/>
<path d="M112.418 105.421L103.208 113.114L113.172 119.802" stroke="#C2CBE2" stroke-width="1.2" stroke-linecap="round" stroke-linejoin="round"/>
<path d="M92.0462 106.489L82.8362 114.182L92.7998 120.869" stroke="#C2CBE2" stroke-width="1.2" stroke-linecap="round" stroke-linejoin="round"/>
<path d="M71.6742 107.557L62.4642 115.249L72.4279 121.937" stroke="#C2CBE2" stroke-width="1.2" stroke-linecap="round" stroke-linejoin="round"/>
</g>
<path d="M174.6 57C174.6 56.0059 173.794 55.2 172.8 55.2C171.806 55.2 171 56.0059 171 57V125.4C171 126.394 171.806 127.2 172.8 127.2C173.794 127.2 174.6 126.394 174.6 125.4V57Z" fill="url(#paint8_linear_430_4097)"/>
<path d="M189.346 41.2846L178.316 30.2537C175.27 27.2076 170.331 27.2076 167.285 30.2537L156.254 41.2846C153.208 44.3307 153.208 49.2694 156.254 52.3154L167.285 63.3463C170.331 66.3924 175.27 66.3924 178.316 63.3463L189.346 52.3154C192.393 49.2694 192.393 44.3307 189.346 41.2846Z" fill="url(#paint9_linear_430_4097)"/>
<path d="M189.346 41.2846L178.316 30.2537C175.27 27.2076 170.331 27.2076 167.285 30.2537L156.254 41.2846C153.208 44.3307 153.208 49.2694 156.254 52.3154L167.285 63.3463C170.331 66.3924 175.27 66.3924 178.316 63.3463L189.346 52.3154C192.393 49.2694 192.393 44.3307 189.346 41.2846Z" stroke="#C2CBE2" stroke-width="1.2"/>
<path d="M174.6 37.2C174.6 36.2059 173.794 35.4 172.8 35.4C171.806 35.4 171 36.2059 171 37.2V46.8C171 47.7941 171.806 48.6 172.8 48.6C173.794 48.6 174.6 47.7941 174.6 46.8V37.2Z" fill="url(#paint10_linear_430_4097)"/>
<path d="M172.8 55.8001C174.126 55.8001 175.2 54.7255 175.2 53.4001C175.2 52.0746 174.126 51.0001 172.8 51.0001C171.475 51.0001 170.4 52.0746 170.4 53.4001C170.4 54.7255 171.475 55.8001 172.8 55.8001Z" fill="url(#paint11_linear_430_4097)"/>
<defs>
<radialGradient id="paint0_radial_430_4097" cx="0" cy="0" r="1" gradientUnits="userSpaceOnUse" gradientTransform="translate(109.2 150) scale(84 14.4)">
<stop stop-color="#D4DBEA"/>
<stop offset="1" stop-color="#D4DBEA" stop-opacity="0"/>
</radialGradient>
<linearGradient id="paint1_linear_430_4097" x1="21.5999" y1="141.6" x2="21.5999" y2="149.4" gradientUnits="userSpaceOnUse">
<stop stop-color="#D7DDEF"/>
<stop offset="1" stop-color="#B6C1DE"/>
</linearGradient>
<linearGradient id="paint2_linear_430_4097" x1="26.9615" y1="100.8" x2="26.9615" y2="143.4" gradientUnits="userSpaceOnUse">
<stop stop-color="white"/>
<stop offset="1" stop-color="#DFE5F3"/>
</linearGradient>
<linearGradient id="paint3_linear_430_4097" x1="63.1619" y1="119.999" x2="53.9306" y2="163.429" gradientUnits="userSpaceOnUse">
<stop stop-color="#C4CCE5"/>
<stop offset="1" stop-color="#A4B0D0"/>
</linearGradient>
<linearGradient id="paint4_linear_430_4097" x1="61.953" y1="121.618" x2="75.6734" y2="163.845" gradientUnits="userSpaceOnUse">
<stop stop-color="#D7DDEF"/>
<stop offset="1" stop-color="#B6C1DE"/>
</linearGradient>
<linearGradient id="paint5_linear_430_4097" x1="154.836" y1="115.195" x2="145.605" y2="158.625" gradientUnits="userSpaceOnUse">
<stop stop-color="#C4CCE5"/>
<stop offset="1" stop-color="#A4B0D0"/>
</linearGradient>
<linearGradient id="paint6_linear_430_4097" x1="153.628" y1="116.813" x2="167.348" y2="159.04" gradientUnits="userSpaceOnUse">
<stop stop-color="#D7DDEF"/>
<stop offset="1" stop-color="#B6C1DE"/>
</linearGradient>
<linearGradient id="paint7_linear_430_4097" x1="47.2046" y1="99.226" x2="48.9631" y2="132.78" gradientUnits="userSpaceOnUse">
<stop stop-color="white"/>
<stop offset="1" stop-color="#DFE5F3"/>
</linearGradient>
<linearGradient id="paint8_linear_430_4097" x1="171" y1="55.2" x2="171" y2="127.2" gradientUnits="userSpaceOnUse">
<stop stop-color="#2C2E5A"/>
<stop offset="1" stop-color="#191A3F"/>
</linearGradient>
<linearGradient id="paint9_linear_430_4097" x1="172.8" y1="24.7383" x2="150.738" y2="46.8" gradientUnits="userSpaceOnUse">
<stop stop-color="white"/>
<stop offset="1" stop-color="#DFE5F3"/>
</linearGradient>
<linearGradient id="paint10_linear_430_4097" x1="171" y1="35.4" x2="171" y2="48.6" gradientUnits="userSpaceOnUse">
<stop stop-color="#2C2E5A"/>
<stop offset="1" stop-color="#191A3F"/>
</linearGradient>
<linearGradient id="paint11_linear_430_4097" x1="170.4" y1="51.0001" x2="170.4" y2="55.8001" gradientUnits="userSpaceOnUse">
<stop stop-color="#2C2E5A"/>
<stop offset="1" stop-color="#191A3F"/>
</linearGradient>
</defs>
</svg>
