<svg width="216" height="180" viewBox="0 0 216 180" fill="none" xmlns="http://www.w3.org/2000/svg">
<path d="M108 163.2C147.765 163.2 180 157.827 180 151.2C180 144.573 147.765 139.2 108 139.2C68.2355 139.2 36 144.573 36 151.2C36 157.827 68.2355 163.2 108 163.2Z" fill="url(#paint0_radial_430_3614)"/>
<path d="M130.562 34.0807L76.6931 37.8475C72.0652 38.1711 68.5759 42.1851 68.8996 46.813L74.4243 125.82C74.7479 130.448 78.7619 133.937 83.3898 133.614L137.258 129.847C141.886 129.523 145.375 125.509 145.052 120.881L139.527 41.8743C139.203 37.2464 135.189 33.7571 130.562 34.0807Z" fill="url(#paint1_linear_430_3614)"/>
<path d="M75.3285 35.5371L124.409 32.1051C129.197 31.7702 131.759 33.997 132.093 38.7853L138.12 124.975C138.455 129.763 136.228 132.325 131.44 132.66L72.7834 136.761C67.9951 137.096 65.4335 134.869 65.0987 130.081L59.7414 53.4681L75.3285 35.5371Z" fill="url(#paint2_linear_430_3614)"/>
<path d="M59.7414 53.4681L76.5004 52.2962L75.3285 35.5371L59.7414 53.4681Z" fill="#C2CBE2"/>
<path d="M59.7414 53.4681L75.3285 35.5371" stroke="#BCC6E1" stroke-width="0.9"/>
<path d="M118.015 48.1902L71.9278 51.413C70.4403 51.517 69.3187 52.8072 69.4227 54.2947C69.5267 55.7823 70.8169 56.9038 72.3045 56.7998L118.392 53.5771C119.879 53.4731 121.001 52.1828 120.897 50.6953C120.793 49.2078 119.503 48.0862 118.015 48.1902Z" fill="url(#paint3_linear_430_3614)"/>
<path d="M75.0982 75.2499C77.0816 75.1112 78.577 73.3909 78.4383 71.4075C78.2997 69.4241 76.5794 67.9287 74.596 68.0674C72.6126 68.2061 71.1172 69.9264 71.2559 71.9098C71.3946 73.8932 73.1149 75.3886 75.0982 75.2499Z" fill="#9FB0FF"/>
<path d="M120.767 66.0417L86.052 68.4692C84.7297 68.5617 83.7328 69.7086 83.8253 71.0308C83.9177 72.3531 85.0646 73.35 86.3868 73.2575L121.102 70.83C122.424 70.7376 123.421 69.5907 123.329 68.2685C123.236 66.9462 122.089 65.9493 120.767 66.0417Z" fill="url(#paint4_linear_430_3614)"/>
<path d="M76.1865 90.8119C78.1699 90.6732 79.6653 88.9529 79.5266 86.9695C79.3879 84.9862 77.6676 83.4907 75.6842 83.6294C73.7009 83.7681 72.2054 85.4884 72.3441 87.4718C72.4828 89.4552 74.2031 90.9506 76.1865 90.8119Z" fill="#C2CBE2"/>
<path d="M121.855 81.6039L87.1402 84.0314C85.818 84.1238 84.821 85.2707 84.9135 86.5929C85.006 87.9152 86.1528 88.9121 87.4751 88.8197L122.19 86.3922C123.513 86.2997 124.51 85.1528 124.417 83.8306C124.325 82.5083 123.178 81.5114 121.855 81.6039Z" fill="url(#paint5_linear_430_3614)"/>
<path d="M77.2748 106.374C79.2581 106.235 80.7536 104.515 80.6149 102.531C80.4762 100.548 78.7559 99.0527 76.7725 99.1914C74.7891 99.3301 73.2937 101.05 73.4324 103.034C73.5711 105.017 75.2914 106.513 77.2748 106.374Z" fill="#C2CBE2"/>
<path d="M122.944 97.1657L88.2284 99.5933C86.9061 99.6857 85.9092 100.833 86.0016 102.155C86.0941 103.477 87.241 104.474 88.5632 104.382L123.278 101.954C124.601 101.862 125.598 100.715 125.505 99.3925C125.413 98.0702 124.266 97.0733 122.944 97.1657Z" fill="url(#paint6_linear_430_3614)"/>
<path d="M78.3629 121.936C80.3463 121.797 81.8417 120.077 81.703 118.094C81.5643 116.11 79.844 114.615 77.8606 114.753C75.8773 114.892 74.3818 116.612 74.5205 118.596C74.6592 120.579 76.3795 122.075 78.3629 121.936Z" fill="#C2CBE2"/>
<path d="M114.455 113.397L89.3166 115.155C87.9944 115.248 86.9974 116.395 87.0899 117.717C87.1824 119.039 88.3292 120.036 89.6515 119.944L114.79 118.186C116.112 118.093 117.109 116.946 117.017 115.624C116.924 114.302 115.778 113.305 114.455 113.397Z" fill="url(#paint7_linear_430_3614)"/>
<path d="M149.782 128.696C147.438 126.353 143.639 126.353 141.296 128.696C138.953 131.039 138.953 134.838 141.296 137.182L157.418 153.304C159.762 155.647 163.561 155.647 165.904 153.304C168.247 150.96 168.247 147.162 165.904 144.818L149.782 128.696Z" fill="url(#paint8_linear_430_3614)"/>
<path d="M133.2 138C146.455 138 157.2 127.255 157.2 114C157.2 100.745 146.455 90 133.2 90C119.945 90 109.2 100.745 109.2 114C109.2 127.255 119.945 138 133.2 138Z" fill="url(#paint9_linear_430_3614)"/>
<path d="M133.2 138C146.455 138 157.2 127.255 157.2 114C157.2 100.745 146.455 90 133.2 90C119.945 90 109.2 100.745 109.2 114C109.2 127.255 119.945 138 133.2 138Z" stroke="url(#paint10_linear_430_3614)" stroke-width="7.2"/>
<path opacity="0.6" d="M126 112.2C128.982 112.2 131.4 109.782 131.4 106.8C131.4 103.818 128.982 101.4 126 101.4C123.018 101.4 120.6 103.818 120.6 106.8C120.6 109.782 123.018 112.2 126 112.2Z" fill="white"/>
<defs>
<radialGradient id="paint0_radial_430_3614" cx="0" cy="0" r="1" gradientUnits="userSpaceOnUse" gradientTransform="translate(108 151.2) scale(72 12)">
<stop stop-color="#D4DBEA"/>
<stop offset="1" stop-color="#D4DBEA" stop-opacity="0"/>
</radialGradient>
<linearGradient id="paint1_linear_430_3614" x1="68.3136" y1="38.4335" x2="75.0102" y2="134.2" gradientUnits="userSpaceOnUse">
<stop stop-color="#D9DFF0"/>
<stop offset="1" stop-color="#BCC6E1"/>
</linearGradient>
<linearGradient id="paint2_linear_430_3614" x1="58.5695" y1="36.709" x2="65.6009" y2="137.263" gradientUnits="userSpaceOnUse">
<stop stop-color="white"/>
<stop offset="1" stop-color="#E2E7F4"/>
</linearGradient>
<linearGradient id="paint3_linear_430_3614" x1="69.2344" y1="51.6013" x2="69.6111" y2="56.9882" gradientUnits="userSpaceOnUse">
<stop stop-color="#C6CEE6"/>
<stop offset="1" stop-color="#A7B3D2"/>
</linearGradient>
<linearGradient id="paint4_linear_430_3614" x1="83.6578" y1="68.6367" x2="83.9927" y2="73.425" gradientUnits="userSpaceOnUse">
<stop stop-color="#D9DFF0"/>
<stop offset="1" stop-color="#BCC6E1"/>
</linearGradient>
<linearGradient id="paint5_linear_430_3614" x1="84.7461" y1="84.1988" x2="85.0809" y2="88.9871" gradientUnits="userSpaceOnUse">
<stop stop-color="#D9DFF0"/>
<stop offset="1" stop-color="#BCC6E1"/>
</linearGradient>
<linearGradient id="paint6_linear_430_3614" x1="85.8342" y1="99.7607" x2="86.1691" y2="104.549" gradientUnits="userSpaceOnUse">
<stop stop-color="#D9DFF0"/>
<stop offset="1" stop-color="#BCC6E1"/>
</linearGradient>
<linearGradient id="paint7_linear_430_3614" x1="86.9225" y1="115.323" x2="87.2573" y2="120.111" gradientUnits="userSpaceOnUse">
<stop stop-color="#D9DFF0"/>
<stop offset="1" stop-color="#BCC6E1"/>
</linearGradient>
<linearGradient id="paint8_linear_430_3614" x1="137.054" y1="132.939" x2="161.661" y2="157.546" gradientUnits="userSpaceOnUse">
<stop stop-color="#2C2E5A"/>
<stop offset="1" stop-color="#16173A"/>
</linearGradient>
<linearGradient id="paint9_linear_430_3614" x1="109.2" y1="90" x2="157.2" y2="138" gradientUnits="userSpaceOnUse">
<stop stop-color="white" stop-opacity="0.55"/>
<stop offset="1" stop-color="#C8D0E6" stop-opacity="0.35"/>
</linearGradient>
<linearGradient id="paint10_linear_430_3614" x1="109.2" y1="90" x2="109.2" y2="138" gradientUnits="userSpaceOnUse">
<stop stop-color="#2C2E5A"/>
<stop offset="1" stop-color="#16173A"/>
</linearGradient>
</defs>
</svg>
