<svg width="216" height="180" viewBox="0 0 216 180" fill="none" xmlns="http://www.w3.org/2000/svg">
<path d="M108 163.2C149.421 163.2 183 157.827 183 151.2C183 144.573 149.421 139.2 108 139.2C66.5786 139.2 33 144.573 33 151.2C33 157.827 66.5786 163.2 108 163.2Z" fill="url(#paint0_radial_430_3640)"/>
<path d="M88.8001 117.6C104.043 117.6 116.4 105.243 116.4 90C116.4 74.757 104.043 62.4 88.8001 62.4C73.557 62.4 61.2001 74.757 61.2001 90C61.2001 105.243 73.557 117.6 88.8001 117.6Z" fill="url(#paint1_linear_430_3640)"/>
<path d="M123.6 115.2C141.494 115.2 156 100.694 156 82.8C156 64.906 141.494 50.4 123.6 50.4C105.706 50.4 91.2001 64.906 91.2001 82.8C91.2001 100.694 105.706 115.2 123.6 115.2Z" fill="url(#paint2_linear_430_3640)"/>
<path d="M64.8001 120C76.0668 120 85.2001 110.867 85.2001 99.6C85.2001 88.3333 76.0668 79.2 64.8001 79.2C53.5335 79.2 44.4001 88.3333 44.4001 99.6C44.4001 110.867 53.5335 120 64.8001 120Z" fill="url(#paint3_linear_430_3640)"/>
<path d="M150 122.4C161.93 122.4 171.6 112.729 171.6 100.8C171.6 88.8706 161.93 79.2 150 79.2C138.071 79.2 128.4 88.8706 128.4 100.8C128.4 112.729 138.071 122.4 150 122.4Z" fill="url(#paint4_linear_430_3640)"/>
<path d="M147.6 93.6H74.4001C66.4472 93.6 60.0001 100.047 60.0001 108C60.0001 115.953 66.4472 122.4 74.4001 122.4H147.6C155.553 122.4 162 115.953 162 108C162 100.047 155.553 93.6 147.6 93.6Z" fill="url(#paint5_linear_430_3640)"/>
<path d="M136.2 72H112.2C109.218 72 106.8 74.4177 106.8 77.4V138.6C106.8 141.582 109.218 144 112.2 144H136.2C139.182 144 141.6 141.582 141.6 138.6V77.4C141.6 74.4177 139.182 72 136.2 72Z" fill="url(#paint6_linear_430_3640)"/>
<path d="M136.2 72H112.2C109.218 72 106.8 74.4177 106.8 77.4V138.6C106.8 141.582 109.218 144 112.2 144H136.2C139.182 144 141.6 141.582 141.6 138.6V77.4C141.6 74.4177 139.182 72 136.2 72Z" stroke="#C2CBE2" stroke-width="0.9"/>
<path d="M106.8 96H141.6" stroke="#C2CBE2" stroke-width="0.9"/>
<path d="M106.8 120H141.6" stroke="#C2CBE2" stroke-width="0.9"/>
<path d="M124.2 79.2H113.4C112.737 79.2 112.2 79.7372 112.2 80.4C112.2 81.0627 112.737 81.6 113.4 81.6H124.2C124.863 81.6 125.4 81.0627 125.4 80.4C125.4 79.7372 124.863 79.2 124.2 79.2Z" fill="#C2CBE2"/>
<path d="M124.2 84H113.4C112.737 84 112.2 84.5373 112.2 85.2C112.2 85.8627 112.737 86.4 113.4 86.4H124.2C124.863 86.4 125.4 85.8627 125.4 85.2C125.4 84.5373 124.863 84 124.2 84Z" fill="#C2CBE2"/>
<path d="M124.2 103.2H113.4C112.737 103.2 112.2 103.737 112.2 104.4C112.2 105.063 112.737 105.6 113.4 105.6H124.2C124.863 105.6 125.4 105.063 125.4 104.4C125.4 103.737 124.863 103.2 124.2 103.2Z" fill="#C2CBE2"/>
<path d="M124.2 108H113.4C112.737 108 112.2 108.537 112.2 109.2C112.2 109.863 112.737 110.4 113.4 110.4H124.2C124.863 110.4 125.4 109.863 125.4 109.2C125.4 108.537 124.863 108 124.2 108Z" fill="#C2CBE2"/>
<path d="M124.2 127.2H113.4C112.737 127.2 112.2 127.737 112.2 128.4C112.2 129.063 112.737 129.6 113.4 129.6H124.2C124.863 129.6 125.4 129.063 125.4 128.4C125.4 127.737 124.863 127.2 124.2 127.2Z" fill="#C2CBE2"/>
<path d="M124.2 132H113.4C112.737 132 112.2 132.537 112.2 133.2C112.2 133.863 112.737 134.4 113.4 134.4H124.2C124.863 134.4 125.4 133.863 125.4 133.2C125.4 132.537 124.863 132 124.2 132Z" fill="#C2CBE2"/>
<path d="M133.2 83.6399C134.327 83.6399 135.24 82.7266 135.24 81.5999C135.24 80.4733 134.327 79.5599 133.2 79.5599C132.073 79.5599 131.16 80.4733 131.16 81.5999C131.16 82.7266 132.073 83.6399 133.2 83.6399Z" fill="#9FB0FF"/>
<path d="M133.2 107.64C134.327 107.64 135.24 106.727 135.24 105.6C135.24 104.473 134.327 103.56 133.2 103.56C132.073 103.56 131.16 104.473 131.16 105.6C131.16 106.727 132.073 107.64 133.2 107.64Z" fill="#C2CBE2"/>
<path d="M133.2 131.64C134.327 131.64 135.24 130.727 135.24 129.6C135.24 128.473 134.327 127.56 133.2 127.56C132.073 127.56 131.16 128.473 131.16 129.6C131.16 130.727 132.073 131.64 133.2 131.64Z" fill="#C2CBE2"/>
<path d="M103.8 80.4H78.6C75.6176 80.4 73.2 82.8177 73.2 85.8V138.6C73.2 141.582 75.6176 144 78.6 144H103.8C106.782 144 109.2 141.582 109.2 138.6V85.8C109.2 82.8177 106.782 80.4 103.8 80.4Z" fill="url(#paint7_linear_430_3640)"/>
<path d="M103.8 80.4H78.6C75.6176 80.4 73.2 82.8177 73.2 85.8V138.6C73.2 141.582 75.6176 144 78.6 144H103.8C106.782 144 109.2 141.582 109.2 138.6V85.8C109.2 82.8177 106.782 80.4 103.8 80.4Z" stroke="#D3DBED" stroke-width="0.9"/>
<path d="M73.2 102H109.2" stroke="#D3DBED" stroke-width="0.9"/>
<path d="M73.2 123.6H109.2" stroke="#D3DBED" stroke-width="0.9"/>
<path d="M91.8 87.6H79.8C79.1372 87.6 78.6 88.1372 78.6 88.8C78.6 89.4627 79.1372 90 79.8 90H91.8C92.4627 90 93 89.4627 93 88.8C93 88.1372 92.4627 87.6 91.8 87.6Z" fill="#C2CBE2"/>
<path d="M91.7999 92.4H79.7999C79.1371 92.4 78.5999 92.9373 78.5999 93.6C78.5999 94.2628 79.1371 94.8 79.7999 94.8H91.7999C92.4626 94.8 92.9999 94.2628 92.9999 93.6C92.9999 92.9373 92.4626 92.4 91.7999 92.4Z" fill="#C2CBE2"/>
<path d="M91.7999 109.2H79.7999C79.1371 109.2 78.5999 109.737 78.5999 110.4C78.5999 111.063 79.1371 111.6 79.7999 111.6H91.7999C92.4626 111.6 92.9999 111.063 92.9999 110.4C92.9999 109.737 92.4626 109.2 91.7999 109.2Z" fill="#C2CBE2"/>
<path d="M91.7999 114H79.7999C79.1371 114 78.5999 114.537 78.5999 115.2C78.5999 115.863 79.1371 116.4 79.7999 116.4H91.7999C92.4626 116.4 92.9999 115.863 92.9999 115.2C92.9999 114.537 92.4626 114 91.7999 114Z" fill="#C2CBE2"/>
<path d="M91.7999 130.8H79.7999C79.1371 130.8 78.5999 131.337 78.5999 132C78.5999 132.663 79.1371 133.2 79.7999 133.2H91.7999C92.4626 133.2 92.9999 132.663 92.9999 132C92.9999 131.337 92.4626 130.8 91.7999 130.8Z" fill="#C2CBE2"/>
<path d="M91.7999 135.6H79.7999C79.1371 135.6 78.5999 136.137 78.5999 136.8C78.5999 137.463 79.1371 138 79.7999 138H91.7999C92.4626 138 92.9999 137.463 92.9999 136.8C92.9999 136.137 92.4626 135.6 91.7999 135.6Z" fill="#C2CBE2"/>
<path d="M100.8 92.16C101.993 92.16 102.96 91.1929 102.96 90C102.96 88.807 101.993 87.84 100.8 87.84C99.607 87.84 98.6399 88.807 98.6399 90C98.6399 91.1929 99.607 92.16 100.8 92.16Z" fill="#9FB0FF"/>
<path d="M100.8 113.76C101.993 113.76 102.96 112.793 102.96 111.6C102.96 110.407 101.993 109.44 100.8 109.44C99.607 109.44 98.6399 110.407 98.6399 111.6C98.6399 112.793 99.607 113.76 100.8 113.76Z" fill="#C2CBE2"/>
<path d="M100.8 135.36C101.993 135.36 102.96 134.393 102.96 133.2C102.96 132.007 101.993 131.04 100.8 131.04C99.607 131.04 98.6399 132.007 98.6399 133.2C98.6399 134.393 99.607 135.36 100.8 135.36Z" fill="#9FB0FF"/>
<defs>
<radialGradient id="paint0_radial_430_3640" cx="0" cy="0" r="1" gradientUnits="userSpaceOnUse" gradientTransform="translate(108 151.2) scale(75 12)">
<stop stop-color="#D4DBEA"/>
<stop offset="1" stop-color="#D4DBEA" stop-opacity="0"/>
</radialGradient>
<linearGradient id="paint1_linear_430_3640" x1="61.2001" y1="62.4" x2="61.2001" y2="117.6" gradientUnits="userSpaceOnUse">
<stop stop-color="#EEF1FB"/>
<stop offset="1" stop-color="#DFE5F2"/>
</linearGradient>
<linearGradient id="paint2_linear_430_3640" x1="91.2001" y1="50.4" x2="91.2001" y2="115.2" gradientUnits="userSpaceOnUse">
<stop stop-color="#EEF1FB"/>
<stop offset="1" stop-color="#DFE5F2"/>
</linearGradient>
<linearGradient id="paint3_linear_430_3640" x1="44.4001" y1="79.2" x2="44.4001" y2="120" gradientUnits="userSpaceOnUse">
<stop stop-color="#EEF1FB"/>
<stop offset="1" stop-color="#DFE5F2"/>
</linearGradient>
<linearGradient id="paint4_linear_430_3640" x1="128.4" y1="79.2" x2="128.4" y2="122.4" gradientUnits="userSpaceOnUse">
<stop stop-color="#EEF1FB"/>
<stop offset="1" stop-color="#DFE5F2"/>
</linearGradient>
<linearGradient id="paint5_linear_430_3640" x1="60.0001" y1="93.6" x2="60.0001" y2="122.4" gradientUnits="userSpaceOnUse">
<stop stop-color="#EEF1FB"/>
<stop offset="1" stop-color="#DFE5F2"/>
</linearGradient>
<linearGradient id="paint6_linear_430_3640" x1="106.8" y1="72" x2="106.8" y2="144" gradientUnits="userSpaceOnUse">
<stop stop-color="#F4F6FC"/>
<stop offset="1" stop-color="#DDE3F1"/>
</linearGradient>
<linearGradient id="paint7_linear_430_3640" x1="73.2" y1="80.4" x2="73.2" y2="144" gradientUnits="userSpaceOnUse">
<stop stop-color="white"/>
<stop offset="1" stop-color="#E3E8F4"/>
</linearGradient>
</defs>
</svg>
