<svg width="312" height="230" viewBox="0 0 312 230" fill="none" xmlns="http://www.w3.org/2000/svg">
<rect x="59" y="107" width="48" height="122" fill="#CC5A23"/>
<path d="M0 0V44H69.5L36 0H0Z" fill="#F2AB15"/>
<rect y="107" width="107" height="73" fill="#F7BA16"/>
<path d="M0 143H59V229H36.875L0 180V143Z" fill="#FFD01A"/>
<path d="M137 229H107V97.5112L114 107.5L137 142V229Z" fill="#F57C00"/>
<path d="M69.5 44H21V107.5H114L107 97.5112L69.5 44Z" fill="#941B39"/>
<rect x="11" y="76" width="48" height="67" fill="#0B483B"/>
<rect y="76" width="32" height="104" fill="#0F6249"/>
<rect x="21" y="44" width="38" height="32" fill="#6C142A"/>
<path d="M273.466 218.576V193.735H279.457V196.852H279.847C280.366 196.073 280.999 195.391 281.746 194.806C282.493 194.222 283.337 193.767 284.279 193.443C285.253 193.118 286.292 192.956 287.396 192.956C289.215 192.956 290.757 193.378 292.024 194.222C293.322 195.066 294.232 196.105 294.751 197.339C295.498 196.138 296.553 195.115 297.917 194.271C299.314 193.394 301.035 192.956 303.08 192.956C305.97 192.956 308.13 193.832 309.558 195.586C311.02 197.339 311.75 199.677 311.75 202.6V218.576H305.418V203.769C305.418 202.178 305.045 200.976 304.298 200.164C303.551 199.32 302.544 198.898 301.278 198.898C300.174 198.898 299.2 199.206 298.356 199.823C297.544 200.408 296.911 201.236 296.456 202.307C296.034 203.379 295.823 204.629 295.823 206.058V218.576H289.442V203.769C289.442 202.178 289.052 200.976 288.273 200.164C287.526 199.32 286.455 198.898 285.058 198.898C284.019 198.898 283.094 199.206 282.282 199.823C281.503 200.408 280.902 201.236 280.48 202.307C280.058 203.379 279.847 204.629 279.847 206.058V218.576H273.466Z" fill="#FFC700"/>
<path d="M256.663 219.355C254.162 219.355 251.922 218.787 249.941 217.65C247.993 216.514 246.45 214.955 245.314 212.974C244.21 210.994 243.658 208.737 243.658 206.204C243.658 203.834 244.21 201.642 245.314 199.629C246.418 197.615 247.928 196.008 249.844 194.806C251.759 193.573 253.951 192.956 256.419 192.956C259.082 192.956 261.322 193.524 263.141 194.66C264.959 195.797 266.339 197.323 267.281 199.239C268.223 201.122 268.693 203.217 268.693 205.522C268.693 206.042 268.677 206.496 268.645 206.886C268.612 207.243 268.58 207.503 268.547 207.665H247.213V203.135H262.556C262.524 202.583 262.361 202.015 262.069 201.431C261.777 200.846 261.371 200.31 260.851 199.823C260.332 199.336 259.699 198.947 258.952 198.654C258.237 198.33 257.409 198.167 256.468 198.167C255.234 198.167 254.097 198.492 253.058 199.141C252.052 199.791 251.256 200.7 250.672 201.869C250.087 203.006 249.795 204.369 249.795 205.961C249.795 207.617 250.103 209.029 250.72 210.198C251.337 211.335 252.165 212.211 253.204 212.828C254.276 213.413 255.461 213.705 256.76 213.705C258.286 213.705 259.569 213.38 260.608 212.731C261.647 212.049 262.459 211.205 263.043 210.198L268.206 212.731C267.037 214.777 265.511 216.4 263.628 217.602C261.744 218.771 259.423 219.355 256.663 219.355Z" fill="#FFC700"/>
<path d="M224.192 199.19V193.735H228.77V199.19H224.192ZM236.758 218.966C234.193 218.966 232.18 218.235 230.719 216.774C229.257 215.28 228.527 213.234 228.527 210.637V186.721H234.907V209.468C234.907 210.669 235.151 211.562 235.638 212.147C236.125 212.699 236.921 212.975 238.025 212.975C238.544 212.975 239.031 212.91 239.486 212.78C239.941 212.617 240.509 212.325 241.191 211.903V218.138C240.476 218.397 239.746 218.592 238.999 218.722C238.284 218.884 237.538 218.966 236.758 218.966ZM234.664 199.19V193.735H240.996V199.19H234.664Z" fill="#FFC700"/>
<path d="M211.471 219.355C209.328 219.355 207.493 219.047 205.967 218.43C204.473 217.813 203.256 217.001 202.314 215.994C201.372 214.988 200.674 213.884 200.22 212.682L205.918 210.198C206.47 211.367 207.217 212.26 208.159 212.877C209.101 213.461 210.205 213.754 211.471 213.754C212.51 213.754 213.452 213.591 214.296 213.267C215.14 212.909 215.563 212.276 215.563 211.367C215.563 210.718 215.335 210.214 214.881 209.857C214.458 209.467 213.923 209.175 213.273 208.98C212.624 208.753 211.958 208.574 211.276 208.445L208.354 207.811C207.152 207.552 206.016 207.097 204.944 206.448C203.873 205.766 202.996 204.921 202.314 203.915C201.665 202.876 201.34 201.69 201.34 200.359C201.34 198.865 201.762 197.567 202.606 196.463C203.483 195.358 204.652 194.498 206.113 193.881C207.607 193.264 209.247 192.956 211.033 192.956C212.689 192.956 214.182 193.15 215.514 193.54C216.845 193.93 217.998 194.53 218.972 195.342C219.946 196.122 220.726 197.128 221.31 198.362L215.855 200.749C215.335 199.775 214.653 199.093 213.809 198.703C212.997 198.313 212.12 198.119 211.179 198.119C210.075 198.119 209.198 198.33 208.549 198.752C207.899 199.174 207.574 199.677 207.574 200.262C207.574 200.879 207.899 201.414 208.549 201.869C209.198 202.324 209.977 202.665 210.887 202.892L214.54 203.769C217.008 204.353 218.858 205.295 220.092 206.594C221.359 207.893 221.992 209.451 221.992 211.27C221.992 212.893 221.521 214.322 220.579 215.556C219.638 216.757 218.371 217.699 216.78 218.381C215.189 219.03 213.419 219.355 211.471 219.355Z" fill="#FFC700"/>
<path d="M183.887 227.976C183.79 228.204 183.693 228.398 183.595 228.561C183.53 228.756 183.465 228.934 183.4 229.097H176.532C176.662 228.837 176.906 228.285 177.263 227.441C177.653 226.629 177.977 225.931 178.237 225.346C178.432 224.956 178.659 224.453 178.919 223.836C179.179 223.219 179.439 222.602 179.698 221.985C179.991 221.401 180.218 220.946 180.38 220.621L184.131 212.292L185.446 209.175L191.632 193.735H198.743L185.933 223.252C185.576 224.096 185.251 224.827 184.959 225.444C184.699 226.06 184.488 226.564 184.326 226.953C184.163 227.376 184.017 227.717 183.887 227.976ZM182.183 218.186L171.369 193.735H178.627L185.056 209.175H185.787L182.183 218.186Z" fill="#FFC700"/>
<path d="M158.005 219.355C156.024 219.355 154.157 218.982 152.404 218.235C150.683 217.488 149.173 216.384 147.874 214.923C146.607 213.429 145.649 211.611 145 209.468L151.186 207.032C151.64 208.753 152.436 210.198 153.573 211.367C154.709 212.536 156.203 213.121 158.054 213.121C158.963 213.121 159.823 212.974 160.635 212.682C161.447 212.358 162.096 211.887 162.583 211.27C163.103 210.653 163.363 209.89 163.363 208.98C163.363 208.104 163.152 207.357 162.73 206.74C162.307 206.09 161.593 205.49 160.586 204.938C159.612 204.353 158.281 203.752 156.592 203.136L154.449 202.356C153.508 201.999 152.55 201.561 151.576 201.041C150.634 200.489 149.757 199.823 148.945 199.044C148.166 198.232 147.533 197.307 147.046 196.268C146.559 195.229 146.315 194.043 146.315 192.712C146.315 190.894 146.786 189.254 147.728 187.793C148.669 186.299 149.984 185.114 151.673 184.237C153.361 183.36 155.326 182.922 157.567 182.922C159.905 182.922 161.837 183.328 163.363 184.14C164.889 184.919 166.074 185.877 166.918 187.013C167.795 188.15 168.412 189.254 168.769 190.325L162.973 192.761C162.778 192.111 162.454 191.494 161.999 190.91C161.544 190.325 160.96 189.855 160.245 189.497C159.531 189.14 158.671 188.962 157.664 188.962C156.722 188.962 155.878 189.124 155.131 189.449C154.384 189.741 153.8 190.163 153.378 190.715C152.956 191.235 152.745 191.852 152.745 192.566C152.745 193.605 153.183 194.498 154.06 195.245C154.969 195.992 156.414 196.69 158.395 197.339L160.586 198.07C161.82 198.492 162.989 198.995 164.093 199.58C165.23 200.132 166.237 200.83 167.113 201.674C167.99 202.519 168.672 203.525 169.159 204.694C169.679 205.863 169.938 207.259 169.938 208.883C169.938 210.669 169.581 212.228 168.867 213.559C168.152 214.89 167.211 215.978 166.042 216.822C164.873 217.667 163.574 218.3 162.145 218.722C160.749 219.144 159.369 219.355 158.005 219.355Z" fill="#FFC700"/>
<path d="M278.223 157.65V132.81H284.214V135.927H284.603C285.35 134.725 286.405 133.784 287.769 133.102C289.133 132.387 290.611 132.03 292.202 132.03C295.254 132.03 297.543 132.956 299.069 134.807C300.596 136.657 301.359 139.125 301.359 142.21V157.65H294.978V142.989C294.978 141.366 294.556 140.132 293.712 139.288C292.9 138.411 291.78 137.973 290.351 137.973C289.182 137.973 288.159 138.297 287.282 138.947C286.438 139.564 285.772 140.408 285.285 141.48C284.831 142.519 284.603 143.688 284.603 144.986V157.65H278.223Z" fill="#FFC700"/>
<path d="M259.369 168.951C257.129 168.951 255.18 168.593 253.524 167.879C251.901 167.197 250.569 166.304 249.53 165.2C248.491 164.096 247.761 162.943 247.339 161.742L253.33 159.307C253.849 160.508 254.628 161.466 255.668 162.18C256.739 162.927 257.973 163.301 259.369 163.301C261.35 163.301 262.941 162.684 264.143 161.45C265.344 160.248 265.945 158.495 265.945 156.189V154.241H265.555C264.776 155.345 263.753 156.189 262.487 156.774C261.22 157.358 259.775 157.65 258.152 157.65C256.138 157.65 254.239 157.131 252.453 156.092C250.699 155.053 249.271 153.575 248.167 151.659C247.095 149.744 246.559 147.471 246.559 144.84C246.559 142.178 247.095 139.905 248.167 138.021C249.271 136.105 250.699 134.628 252.453 133.589C254.239 132.55 256.138 132.03 258.152 132.03C259.775 132.03 261.22 132.323 262.487 132.907C263.753 133.459 264.776 134.303 265.555 135.44H265.945V132.81H272.082V155.946C272.082 158.608 271.562 160.914 270.523 162.862C269.484 164.81 268.007 166.304 266.091 167.343C264.208 168.415 261.967 168.951 259.369 168.951ZM259.467 151.854C260.603 151.854 261.659 151.594 262.633 151.075C263.639 150.523 264.435 149.727 265.019 148.688C265.636 147.617 265.945 146.334 265.945 144.84C265.945 143.282 265.636 141.983 265.019 140.944C264.435 139.905 263.639 139.125 262.633 138.606C261.659 138.086 260.603 137.826 259.467 137.826C258.33 137.826 257.259 138.086 256.252 138.606C255.245 139.125 254.434 139.905 253.817 140.944C253.232 141.983 252.94 143.282 252.94 144.84C252.94 146.367 253.232 147.665 253.817 148.737C254.434 149.776 255.245 150.555 256.252 151.075C257.259 151.594 258.33 151.854 259.467 151.854Z" fill="#FFC700"/>
<path d="M235.413 157.651V132.81H241.794V157.651H235.413ZM238.628 130.082C237.491 130.082 236.517 129.676 235.705 128.864C234.894 128.053 234.488 127.079 234.488 125.942C234.488 124.806 234.894 123.848 235.705 123.068C236.517 122.256 237.491 121.851 238.628 121.851C239.764 121.851 240.722 122.256 241.502 123.068C242.313 123.848 242.719 124.806 242.719 125.942C242.719 127.079 242.313 128.053 241.502 128.864C240.722 129.676 239.764 130.082 238.628 130.082Z" fill="#FFC700"/>
<path d="M220.366 158.43C218.223 158.43 216.388 158.121 214.862 157.504C213.368 156.887 212.151 156.076 211.209 155.069C210.267 154.062 209.569 152.958 209.114 151.757L214.813 149.273C215.365 150.442 216.112 151.335 217.054 151.952C217.995 152.536 219.1 152.828 220.366 152.828C221.405 152.828 222.347 152.666 223.191 152.341C224.035 151.984 224.457 151.351 224.457 150.442C224.457 149.792 224.23 149.289 223.775 148.932C223.353 148.542 222.818 148.25 222.168 148.055C221.519 147.828 220.853 147.649 220.171 147.519L217.249 146.886C216.047 146.626 214.911 146.172 213.839 145.522C212.768 144.84 211.891 143.996 211.209 142.989C210.559 141.95 210.235 140.765 210.235 139.434C210.235 137.94 210.657 136.641 211.501 135.537C212.378 134.433 213.547 133.573 215.008 132.956C216.502 132.339 218.142 132.03 219.928 132.03C221.584 132.03 223.077 132.225 224.409 132.615C225.74 133.004 226.893 133.605 227.867 134.417C228.841 135.196 229.62 136.203 230.205 137.437L224.75 139.823C224.23 138.849 223.548 138.167 222.704 137.778C221.892 137.388 221.015 137.193 220.074 137.193C218.97 137.193 218.093 137.404 217.443 137.826C216.794 138.249 216.469 138.752 216.469 139.336C216.469 139.953 216.794 140.489 217.443 140.944C218.093 141.398 218.872 141.739 219.781 141.967L223.435 142.843C225.902 143.428 227.753 144.37 228.987 145.668C230.254 146.967 230.887 148.526 230.887 150.344C230.887 151.968 230.416 153.397 229.474 154.631C228.533 155.832 227.266 156.774 225.675 157.456C224.084 158.105 222.314 158.43 220.366 158.43Z" fill="#FFC700"/>
<path d="M194.113 158.43C191.613 158.43 189.372 157.862 187.392 156.725C185.443 155.589 183.901 154.03 182.764 152.049C181.66 150.068 181.108 147.812 181.108 145.279C181.108 142.908 181.66 140.716 182.764 138.703C183.868 136.69 185.378 135.083 187.294 133.881C189.21 132.647 191.402 132.03 193.87 132.03C196.532 132.03 198.773 132.599 200.591 133.735C202.41 134.872 203.79 136.398 204.732 138.314C205.673 140.197 206.144 142.291 206.144 144.597C206.144 145.116 206.128 145.571 206.095 145.961C206.063 146.318 206.03 146.578 205.998 146.74H184.664V142.21H200.007C199.974 141.658 199.812 141.09 199.52 140.505C199.228 139.921 198.822 139.385 198.302 138.898C197.783 138.411 197.149 138.021 196.403 137.729C195.688 137.404 194.86 137.242 193.918 137.242C192.685 137.242 191.548 137.567 190.509 138.216C189.502 138.866 188.707 139.775 188.122 140.944C187.538 142.08 187.245 143.444 187.245 145.035C187.245 146.691 187.554 148.104 188.171 149.273C188.788 150.409 189.616 151.286 190.655 151.903C191.727 152.487 192.912 152.78 194.211 152.78C195.737 152.78 197.019 152.455 198.059 151.806C199.098 151.124 199.909 150.279 200.494 149.273L205.657 151.806C204.488 153.851 202.962 155.475 201.078 156.676C199.195 157.845 196.873 158.43 194.113 158.43Z" fill="#FFC700"/>
<path d="M147.484 157.651V122.776H159.271C162.973 122.776 166.155 123.523 168.818 125.016C171.513 126.478 173.575 128.523 175.004 131.154C176.465 133.751 177.196 136.771 177.196 140.213C177.196 143.655 176.465 146.691 175.004 149.322C173.575 151.952 171.513 153.997 168.818 155.459C166.155 156.92 162.973 157.651 159.271 157.651H147.484ZM154.06 151.416H158.979C161.544 151.416 163.688 150.961 165.409 150.052C167.13 149.11 168.412 147.795 169.256 146.107C170.133 144.418 170.572 142.454 170.572 140.213C170.572 137.94 170.133 135.976 169.256 134.32C168.412 132.631 167.13 131.332 165.409 130.423C163.688 129.481 161.544 129.01 158.979 129.01H154.06V151.416Z" fill="#FFC700"/>
<path d="M283.455 96.7252V71.8843H289.446V75.0016H289.836C290.582 73.8001 291.638 72.8585 293.002 72.1766C294.365 71.4622 295.843 71.105 297.434 71.105C300.486 71.105 302.776 72.0304 304.302 73.8813C305.828 75.7322 306.591 78.2001 306.591 81.2849V96.7252H300.21V82.0642C300.21 80.4406 299.788 79.2067 298.944 78.3624C298.132 77.4857 297.012 77.0473 295.583 77.0473C294.414 77.0473 293.391 77.372 292.515 78.0215C291.67 78.6384 291.005 79.4827 290.517 80.5543C290.063 81.5934 289.836 82.7623 289.836 84.0612V96.7252H283.455Z" fill="#FFC700"/>
<path d="M263.847 97.5045C262.093 97.5045 260.534 97.1636 259.171 96.4817C257.839 95.7673 256.784 94.7769 256.005 93.5105C255.225 92.2441 254.836 90.7829 254.836 89.1268C254.836 87.4058 255.274 85.9283 256.151 84.6944C257.06 83.4605 258.261 82.5026 259.755 81.8207C261.281 81.1388 262.97 80.7978 264.821 80.7978C265.827 80.7978 266.737 80.8627 267.548 80.9926C268.393 81.0901 269.14 81.2199 269.789 81.3823C270.438 81.5447 270.974 81.7232 271.396 81.9181V80.8465C271.396 79.5152 270.893 78.4274 269.886 77.5831C268.88 76.7064 267.5 76.268 265.746 76.268C264.577 76.268 263.441 76.544 262.337 77.096C261.265 77.6156 260.372 78.3137 259.658 79.1905L255.566 75.9757C256.378 74.9366 257.32 74.0599 258.391 73.3455C259.463 72.5987 260.648 72.0467 261.947 71.6895C263.246 71.2998 264.61 71.105 266.038 71.105C269.838 71.105 272.728 71.9817 274.708 73.7352C276.689 75.4887 277.68 78.0539 277.68 81.431V96.7252H271.396V94.1924H271.007C270.552 94.7769 269.984 95.3289 269.302 95.8485C268.62 96.3355 267.824 96.7252 266.915 97.0174C266.006 97.3422 264.983 97.5045 263.847 97.5045ZM265.357 92.5363C266.655 92.5363 267.743 92.2603 268.62 91.7083C269.529 91.1238 270.211 90.377 270.666 89.4678C271.153 88.5585 271.396 87.6006 271.396 86.594C270.682 86.2368 269.87 85.9608 268.961 85.766C268.052 85.5387 267.126 85.425 266.185 85.425C264.301 85.425 263.002 85.7822 262.288 86.4966C261.574 87.211 261.216 88.0877 261.216 89.1268C261.216 90.101 261.557 90.9128 262.239 91.5622C262.954 92.2116 263.993 92.5363 265.357 92.5363Z" fill="#FFC700"/>
<path d="M229.563 96.7252V61.8506H235.943V96.7252H229.563ZM233.313 91.5135V83.6229L245.198 71.8844H253.04V72.274L233.313 91.5135ZM245.928 96.7252L237.551 83.3307L241.983 78.9957L253.478 96.3356V96.7252H245.928Z" fill="#FFC700"/>
<path d="M200.5 96.7252V71.8843H206.491V75.0016H206.88C207.627 73.8001 208.683 72.8585 210.046 72.1766C211.41 71.4622 212.888 71.105 214.479 71.105C217.531 71.105 219.82 72.0304 221.347 73.8813C222.873 75.7322 223.636 78.2001 223.636 81.2849V96.7252H217.255V82.0642C217.255 80.4406 216.833 79.2067 215.989 78.3624C215.177 77.4857 214.057 77.0473 212.628 77.0473C211.459 77.0473 210.436 77.372 209.559 78.0215C208.715 78.6384 208.049 79.4827 207.562 80.5543C207.108 81.5934 206.88 82.7623 206.88 84.0612V96.7252H200.5Z" fill="#FFC700"/>
<path d="M180.891 97.5045C179.138 97.5045 177.579 97.1636 176.216 96.4817C174.884 95.7673 173.829 94.7769 173.05 93.5105C172.27 92.2441 171.881 90.7829 171.881 89.1268C171.881 87.4058 172.319 85.9283 173.196 84.6944C174.105 83.4605 175.306 82.5026 176.8 81.8207C178.326 81.1388 180.015 80.7978 181.866 80.7978C182.872 80.7978 183.781 80.8627 184.593 80.9926C185.437 81.0901 186.184 81.2199 186.834 81.3823C187.483 81.5447 188.019 81.7232 188.441 81.9181V80.8465C188.441 79.5152 187.938 78.4274 186.931 77.5831C185.925 76.7064 184.545 76.268 182.791 76.268C181.622 76.268 180.486 76.544 179.381 77.096C178.31 77.6156 177.417 78.3137 176.703 79.1905L172.611 75.9757C173.423 74.9366 174.365 74.0599 175.436 73.3455C176.508 72.5987 177.693 72.0467 178.992 71.6895C180.291 71.2998 181.655 71.105 183.083 71.105C186.882 71.105 189.772 71.9817 191.753 73.7352C193.734 75.4887 194.724 78.0539 194.724 81.431V96.7252H188.441V94.1924H188.051C187.597 94.7769 187.029 95.3289 186.347 95.8485C185.665 96.3355 184.869 96.7252 183.96 97.0174C183.051 97.3422 182.028 97.5045 180.891 97.5045ZM182.401 92.5363C183.7 92.5363 184.788 92.2603 185.665 91.7083C186.574 91.1238 187.256 90.377 187.71 89.4678C188.198 88.5585 188.441 87.6006 188.441 86.594C187.727 86.2368 186.915 85.9608 186.006 85.766C185.097 85.5387 184.171 85.425 183.229 85.425C181.346 85.425 180.047 85.7822 179.333 86.4966C178.618 87.211 178.261 88.0877 178.261 89.1268C178.261 90.101 178.602 90.9128 179.284 91.5622C179.998 92.2116 181.038 92.5363 182.401 92.5363Z" fill="#FFC700"/>
<path d="M147.484 96.7252V61.8506H154.06V90.4907H168.818V96.7252H147.484Z" fill="#FFC700"/>
<path d="M195.458 35.8001V10.9592H201.838V35.8001H195.458ZM198.672 8.23159C197.536 8.23159 196.562 7.82569 195.75 7.0139C194.938 6.2021 194.532 5.22795 194.532 4.09144C194.532 2.95493 194.938 1.99701 195.75 1.21769C196.562 0.405897 197.536 0 198.672 0C199.809 0 200.767 0.405897 201.546 1.21769C202.358 1.99701 202.764 2.95493 202.764 4.09144C202.764 5.22795 202.358 6.2021 201.546 7.0139C200.767 7.82569 199.809 8.23159 198.672 8.23159Z" fill="#FFC700"/>
<path d="M174.957 35.8V10.9591H180.948V14.2712H181.337C181.76 13.4919 182.312 12.81 182.993 12.2255C183.708 11.6086 184.536 11.1215 185.478 10.7643C186.419 10.4071 187.426 10.2285 188.497 10.2285C189.147 10.2285 189.731 10.2772 190.251 10.3746C190.77 10.4721 191.225 10.6019 191.615 10.7643V17.145C190.933 16.8852 190.251 16.6742 189.569 16.5118C188.92 16.317 188.221 16.2196 187.475 16.2196C186.208 16.2196 185.104 16.5443 184.162 17.1937C183.253 17.8107 182.555 18.6712 182.068 19.7752C181.581 20.8468 181.337 22.0645 181.337 23.4283V35.8H174.957Z" fill="#FFC700"/>
<path d="M158.005 36.5793C156.024 36.5793 154.157 36.2059 152.404 35.459C150.683 34.7122 149.173 33.6081 147.874 32.1469C146.607 30.6532 145.649 28.8348 145 26.6917L151.186 24.2563C151.64 25.9773 152.436 27.4223 153.573 28.5913C154.709 29.7602 156.203 30.3447 158.054 30.3447C158.963 30.3447 159.823 30.1986 160.635 29.9064C161.447 29.5816 162.096 29.1108 162.583 28.4938C163.103 27.8769 163.363 27.1138 163.363 26.2046C163.363 25.3278 163.152 24.581 162.73 23.964C162.307 23.3146 161.593 22.7139 160.586 22.1618C159.612 21.5774 158.281 20.9766 156.592 20.3597L154.449 19.5803C153.508 19.2232 152.55 18.7848 151.576 18.2652C150.634 17.7132 149.757 17.0475 148.945 16.2682C148.166 15.4564 147.533 14.531 147.046 13.4919C146.559 12.4528 146.315 11.2676 146.315 9.93623C146.315 8.11781 146.786 6.47799 147.728 5.01676C148.669 3.52306 149.984 2.33784 151.673 1.4611C153.361 0.584365 155.326 0.145996 157.567 0.145996C159.905 0.145996 161.837 0.551894 163.363 1.36369C164.889 2.14301 166.074 3.10093 166.918 4.23744C167.795 5.37395 168.412 6.47799 168.769 7.54956L162.973 9.98494C162.778 9.3355 162.454 8.71854 161.999 8.13405C161.544 7.54956 160.96 7.07872 160.245 6.72153C159.531 6.36434 158.671 6.18574 157.664 6.18574C156.722 6.18574 155.878 6.3481 155.131 6.67282C154.384 6.96506 153.8 7.3872 153.378 7.93922C152.956 8.45876 152.745 9.07573 152.745 9.79011C152.745 10.8292 153.183 11.7222 154.06 12.469C154.969 13.2159 156.414 13.914 158.395 14.5635L160.586 15.2941C161.82 15.7162 162.989 16.2195 164.093 16.804C165.23 17.356 166.237 18.0542 167.113 18.8984C167.99 19.7427 168.672 20.7493 169.159 21.9183C169.679 23.0873 169.938 24.4836 169.938 26.1072C169.938 27.8931 169.581 29.4518 168.867 30.7831C168.152 32.1144 167.211 33.2022 166.042 34.0465C164.873 34.8908 163.574 35.524 162.145 35.9461C160.749 36.3682 159.369 36.5793 158.005 36.5793Z" fill="#FFC700"/>
</svg>
